<svg width="177" height="31" viewBox="0 0 177 31" fill="none" xmlns="http://www.w3.org/2000/svg">
<path d="M36.4059 26.1672C35.2433 26.1672 34.1921 25.9681 33.2524 25.57C32.3287 25.1718 31.596 24.5985 31.0545 23.8499C30.513 23.1013 30.2343 22.2174 30.2184 21.1981H33.8019C33.8497 21.883 34.0886 22.4245 34.5186 22.8226C34.9645 23.2208 35.5697 23.4199 36.3342 23.4199C37.1146 23.4199 37.7278 23.2367 38.1738 22.8704C38.6197 22.4882 38.8427 21.9944 38.8427 21.3892C38.8427 20.8955 38.6914 20.4894 38.3888 20.1708C38.0862 19.8523 37.7039 19.6054 37.2421 19.4303C36.7961 19.2391 36.175 19.0321 35.3786 18.8091C34.2956 18.4906 33.4117 18.18 32.7268 17.8774C32.0579 17.5589 31.4766 17.089 30.9829 16.4679C30.5051 15.8308 30.2662 14.9867 30.2662 13.9356C30.2662 12.9481 30.513 12.0881 31.0068 11.3554C31.5005 10.6228 32.1933 10.0654 33.0852 9.68313C33.9771 9.28496 34.9964 9.08588 36.1431 9.08588C37.8632 9.08588 39.2568 9.50794 40.3239 10.352C41.4069 11.1802 42.0041 12.3429 42.1156 13.84H38.4366C38.4047 13.2666 38.1578 12.7968 37.696 12.4305C37.25 12.0482 36.6528 11.8571 35.9042 11.8571C35.2512 11.8571 34.7256 12.0243 34.3275 12.3588C33.9452 12.6933 33.7541 13.179 33.7541 13.8161C33.7541 14.262 33.8975 14.6363 34.1841 14.9389C34.4867 15.2256 34.8531 15.4645 35.2831 15.6556C35.729 15.8308 36.3502 16.0379 37.1465 16.2768C38.2295 16.5953 39.1134 16.9138 39.7983 17.2324C40.4831 17.5509 41.0724 18.0287 41.5661 18.6658C42.0599 19.3028 42.3067 20.139 42.3067 21.1742C42.3067 22.0661 42.0758 22.8943 41.6139 23.6588C41.152 24.4233 40.4752 25.0364 39.5833 25.4983C38.6914 25.9443 37.6323 26.1672 36.4059 26.1672ZM61.6427 12.5738C63.2672 12.5738 64.5732 13.0755 65.5607 14.0789C66.564 15.0663 67.0657 16.452 67.0657 18.2357V26H63.7211V18.6897C63.7211 17.6544 63.4583 16.8661 62.9328 16.3245C62.4072 15.7671 61.6905 15.4884 60.7827 15.4884C59.8748 15.4884 59.1502 15.7671 58.6087 16.3245C58.0831 16.8661 57.8203 17.6544 57.8203 18.6897V26H54.4757V18.6897C54.4757 17.6544 54.2129 16.8661 53.6873 16.3245C53.1617 15.7671 52.445 15.4884 51.5372 15.4884C50.6135 15.4884 49.8809 15.7671 49.3393 16.3245C48.8138 16.8661 48.551 17.6544 48.551 18.6897V26H45.2064V12.7649H48.551V14.3656C48.981 13.8081 49.5305 13.3702 50.1994 13.0516C50.8842 12.7331 51.6328 12.5738 52.445 12.5738C53.4803 12.5738 54.404 12.7968 55.2163 13.2427C56.0285 13.6728 56.6577 14.2939 57.1036 15.1062C57.5336 14.3417 58.1548 13.7285 58.967 13.2666C59.7952 12.8048 60.6871 12.5738 61.6427 12.5738ZM69.3795 19.3347C69.3795 17.9969 69.6423 16.8103 70.1679 15.7751C70.7094 14.7398 71.4341 13.9435 72.3419 13.3861C73.2656 12.8286 74.2929 12.5499 75.4237 12.5499C76.4111 12.5499 77.2712 12.749 78.0038 13.1472C78.7524 13.5453 79.3496 14.047 79.7956 14.6522V12.7649H83.164V26H79.7956V24.0649C79.3655 24.686 78.7683 25.2037 78.0038 25.6178C77.2552 26.0159 76.3872 26.215 75.3998 26.215C74.2849 26.215 73.2656 25.9283 72.3419 25.355C71.4341 24.7816 70.7094 23.9773 70.1679 22.9421C69.6423 21.8909 69.3795 20.6885 69.3795 19.3347ZM79.7956 19.3825C79.7956 18.5702 79.6363 17.8774 79.3178 17.304C78.9992 16.7148 78.5692 16.2688 78.0277 15.9662C77.4862 15.6477 76.9049 15.4884 76.2837 15.4884C75.6626 15.4884 75.0892 15.6397 74.5636 15.9423C74.0381 16.2449 73.608 16.6909 73.2736 17.2801C72.955 17.8535 72.7958 18.5384 72.7958 19.3347C72.7958 20.131 72.955 20.8318 73.2736 21.437C73.608 22.0263 74.0381 22.4802 74.5636 22.7987C75.1051 23.1173 75.6785 23.2765 76.2837 23.2765C76.9049 23.2765 77.4862 23.1252 78.0277 22.8226C78.5692 22.5041 78.9992 22.0581 79.3178 21.4848C79.6363 20.8955 79.7956 20.1947 79.7956 19.3825ZM89.7752 14.8195C90.2052 14.1187 90.7627 13.5692 91.4475 13.1711C92.1483 12.7729 92.9446 12.5738 93.8365 12.5738V16.0856H92.9526C91.9014 16.0856 91.1051 16.3325 90.5636 16.8262C90.038 17.32 89.7752 18.18 89.7752 19.4064V26H86.4306V12.7649H89.7752V14.8195ZM99.9833 15.5123V21.9148C99.9833 22.3608 100.087 22.6873 100.294 22.8943C100.517 23.0854 100.883 23.181 101.393 23.181H102.946V26H100.843C98.0244 26 96.6149 24.6303 96.6149 21.8909V15.5123H95.0381V12.7649H96.6149V9.49201H99.9833V12.7649H102.946V15.5123H99.9833ZM116.699 9.32478V12.0243H112.256V26H108.911V12.0243H104.467V9.32478H116.699ZM122.484 14.8195C122.914 14.1187 123.471 13.5692 124.156 13.1711C124.857 12.7729 125.653 12.5738 126.545 12.5738V16.0856H125.661C124.61 16.0856 123.814 16.3325 123.272 16.8262C122.747 17.32 122.484 18.18 122.484 19.4064V26H119.139V12.7649H122.484V14.8195ZM127.938 19.3347C127.938 17.9969 128.201 16.8103 128.726 15.7751C129.268 14.7398 129.993 13.9435 130.9 13.3861C131.824 12.8286 132.851 12.5499 133.982 12.5499C134.97 12.5499 135.83 12.749 136.562 13.1472C137.311 13.5453 137.908 14.047 138.354 14.6522V12.7649H141.723V26H138.354V24.0649C137.924 24.686 137.327 25.2037 136.562 25.6178C135.814 26.0159 134.946 26.215 133.958 26.215C132.843 26.215 131.824 25.9283 130.9 25.355C129.993 24.7816 129.268 23.9773 128.726 22.9421C128.201 21.8909 127.938 20.6885 127.938 19.3347ZM138.354 19.3825C138.354 18.5702 138.195 17.8774 137.876 17.304C137.558 16.7148 137.128 16.2688 136.586 15.9662C136.045 15.6477 135.463 15.4884 134.842 15.4884C134.221 15.4884 133.648 15.6397 133.122 15.9423C132.597 16.2449 132.167 16.6909 131.832 17.2801C131.514 17.8535 131.354 18.5384 131.354 19.3347C131.354 20.131 131.514 20.8318 131.832 21.437C132.167 22.0263 132.597 22.4802 133.122 22.7987C133.664 23.1173 134.237 23.2765 134.842 23.2765C135.463 23.2765 136.045 23.1252 136.586 22.8226C137.128 22.5041 137.558 22.0581 137.876 21.4848C138.195 20.8955 138.354 20.1947 138.354 19.3825ZM144.129 19.3825C144.129 18.0128 144.408 16.8183 144.965 15.799C145.523 14.7637 146.295 13.9674 147.283 13.41C148.27 12.8366 149.401 12.5499 150.675 12.5499C152.315 12.5499 153.669 12.964 154.736 13.7922C155.819 14.6045 156.544 15.7512 156.91 17.2324H153.303C153.112 16.659 152.785 16.2131 152.323 15.8945C151.877 15.5601 151.32 15.3928 150.651 15.3928C149.695 15.3928 148.939 15.7432 148.382 16.444C147.824 17.1288 147.545 18.1083 147.545 19.3825C147.545 20.6407 147.824 21.6202 148.382 22.3209C148.939 23.0058 149.695 23.3482 150.651 23.3482C152.005 23.3482 152.889 22.743 153.303 21.5326H156.91C156.544 22.966 155.819 24.1047 154.736 24.9488C153.653 25.793 152.299 26.215 150.675 26.215C149.401 26.215 148.27 25.9363 147.283 25.3789C146.295 24.8055 145.523 24.0092 144.965 22.9899C144.408 21.9546 144.129 20.7522 144.129 19.3825ZM167.196 26L162.705 20.362V26H159.36V8.3214H162.705V18.3791L167.149 12.7649H171.497L165.667 19.4064L171.544 26H167.196Z" fill="white"/>
<path d="M12 29V20" stroke="white" stroke-width="2" stroke-linecap="round" stroke-linejoin="round"/>
<path d="M15.17 9.20993C15.4191 9.07067 15.6997 8.99756 15.985 8.99756C16.2704 8.99756 16.551 9.07067 16.8 9.20993L21 11.5699C21.2975 11.7381 21.5449 11.9823 21.7171 12.2775C21.8893 12.5726 21.98 12.9082 21.98 13.2499C21.98 13.5916 21.8893 13.9272 21.7171 14.2224C21.5449 14.5176 21.2975 14.7617 21 14.9299L8.82002 21.7899C8.57022 21.9324 8.2876 22.0074 8.00002 22.0074C7.71244 22.0074 7.42982 21.9324 7.18002 21.7899L3.00002 19.4299C2.70257 19.2617 2.45511 19.0176 2.28293 18.7224C2.11075 18.4272 2.02002 18.0916 2.02002 17.7499C2.02002 17.4082 2.11075 17.0726 2.28293 16.7775C2.45511 16.4823 2.70257 16.2381 3.00002 16.0699L15.17 9.20993Z" stroke="white" stroke-width="2" stroke-linecap="round" stroke-linejoin="round"/>
<path d="M20 20V23.87C20.0004 24.2474 19.8971 24.6178 19.7013 24.9405C19.5056 25.2632 19.2249 25.5259 18.89 25.7L12.89 28.78C12.6151 28.9229 12.3098 28.9975 12 28.9975C11.6902 28.9975 11.3849 28.9229 11.11 28.78L5.11 25.7C4.77508 25.5259 4.49443 25.2632 4.29868 24.9405C4.10293 24.6178 3.99961 24.2474 4 23.87V20" stroke="white" stroke-width="2" stroke-linecap="round" stroke-linejoin="round"/>
<path d="M21 19.43C21.2975 19.2618 21.5449 19.0176 21.7171 18.7225C21.8893 18.4273 21.98 18.0917 21.98 17.75C21.98 17.4083 21.8893 17.0727 21.7171 16.7775C21.5449 16.4824 21.2975 16.2382 21 16.07L8.83002 9.2C8.5819 9.05791 8.30094 8.98315 8.01502 8.98315C7.7291 8.98315 7.44814 9.05791 7.20002 9.2L3.00002 11.57C2.70257 11.7382 2.45511 11.9824 2.28293 12.2775C2.11075 12.5727 2.02002 12.9083 2.02002 13.25C2.02002 13.5917 2.11075 13.9273 2.28293 14.2225C2.45511 14.5176 2.70257 14.7618 3.00002 14.93L15.18 21.79C15.428 21.9325 15.709 22.0075 15.995 22.0075C16.281 22.0075 16.562 21.9325 16.81 21.79L21 19.43Z" stroke="white" stroke-width="2" stroke-linecap="round" stroke-linejoin="round"/>
</svg>
